<svg width="97" height="100" viewBox="0 0 97 100" fill="none" xmlns="http://www.w3.org/2000/svg">
<g filter="url(#filter0_d)">
<mask id="path-1-inside-1" fill="white">
<path fill-rule="evenodd" clip-rule="evenodd" d="M28.4805 18.127C24.0622 18.127 20.4805 21.7087 20.4805 26.127V59.2089C20.4805 63.6272 24.0622 67.2089 28.4805 67.2089H40.0203L46.2799 76.1758C47.4739 77.8862 50.0058 77.8862 51.1998 76.1758L57.4594 67.2089H69C73.4183 67.2089 77 63.6272 77 59.2089V26.127C77 21.7087 73.4183 18.127 69 18.127H28.4805Z"/>
</mask>
<path fill-rule="evenodd" clip-rule="evenodd" d="M28.4805 18.127C24.0622 18.127 20.4805 21.7087 20.4805 26.127V59.2089C20.4805 63.6272 24.0622 67.2089 28.4805 67.2089H40.0203L46.2799 76.1758C47.4739 77.8862 50.0058 77.8862 51.1998 76.1758L57.4594 67.2089H69C73.4183 67.2089 77 63.6272 77 59.2089V26.127C77 21.7087 73.4183 18.127 69 18.127H28.4805Z" fill="#00CABE"/>
<path d="M40.0203 67.2089L41.6602 66.0641L41.0632 65.2089H40.0203V67.2089ZM46.2799 76.1758L47.9199 75.031L46.2799 76.1758ZM51.1998 76.1758L52.8397 77.3207L51.1998 76.1758ZM57.4594 67.2089V65.2089H56.4164L55.8194 66.0641L57.4594 67.2089ZM22.4805 26.127C22.4805 22.8133 25.1668 20.127 28.4805 20.127V16.127C22.9576 16.127 18.4805 20.6041 18.4805 26.127H22.4805ZM22.4805 59.2089V26.127H18.4805V59.2089H22.4805ZM28.4805 65.2089C25.1668 65.2089 22.4805 62.5226 22.4805 59.2089H18.4805C18.4805 64.7318 22.9576 69.2089 28.4805 69.2089V65.2089ZM40.0203 65.2089H28.4805V69.2089H40.0203V65.2089ZM47.9199 75.031L41.6602 66.0641L38.3803 68.3537L44.64 77.3207L47.9199 75.031ZM49.5598 75.031C49.1618 75.6012 48.3179 75.6012 47.9199 75.031L44.64 77.3207C46.63 80.1713 50.8497 80.1713 52.8397 77.3207L49.5598 75.031ZM55.8194 66.0641L49.5598 75.031L52.8397 77.3207L59.0993 68.3537L55.8194 66.0641ZM69 65.2089H57.4594V69.2089H69V65.2089ZM75 59.2089C75 62.5226 72.3137 65.2089 69 65.2089V69.2089C74.5229 69.2089 79 64.7318 79 59.2089H75ZM75 26.127V59.2089H79V26.127H75ZM69 20.127C72.3137 20.127 75 22.8132 75 26.127H79C79 20.6041 74.5228 16.127 69 16.127V20.127ZM28.4805 20.127H69V16.127H28.4805V20.127Z" fill="white" mask="url(#path-1-inside-1)"/>
</g>
<path d="M49.3261 32.8536C49.3261 32.5205 49.1928 32.2011 48.9555 31.9655C48.7181 31.73 48.3963 31.5977 48.0606 31.5977C47.725 31.5977 47.4031 31.73 47.1658 31.9655C46.9285 32.2011 46.7951 32.5205 46.7951 32.8536V35.3655C46.7925 35.8039 46.6743 36.2339 46.4522 36.6129C46.2302 36.9919 45.9122 37.3066 45.5296 37.5258V32.8536C45.5296 32.5205 45.3963 32.2011 45.159 31.9655C44.9217 31.73 44.5998 31.5977 44.2641 31.5977C43.9285 31.5977 43.6066 31.73 43.3693 31.9655C43.132 32.2011 42.9986 32.5205 42.9986 32.8536V37.5258C42.6161 37.3066 42.298 36.9919 42.076 36.6129C41.854 36.2339 41.7358 35.8039 41.7331 35.3655V32.8536C41.7331 32.5205 41.5998 32.2011 41.3625 31.9655C41.1252 31.73 40.8033 31.5977 40.4676 31.5977C40.132 31.5977 39.8101 31.73 39.5728 31.9655C39.3355 32.2011 39.2021 32.5205 39.2021 32.8536V35.3655C39.2058 36.4765 39.5804 37.555 40.2673 38.4321C40.9542 39.3093 41.9148 39.9358 42.9986 40.2136V52.949C42.9986 53.2821 43.132 53.6016 43.3693 53.8371C43.6066 54.0726 43.9285 54.205 44.2641 54.205C44.5998 54.205 44.9217 54.0726 45.159 53.8371C45.3963 53.6016 45.5296 53.2821 45.5296 52.949V40.2136C46.6135 39.9358 47.574 39.3093 48.261 38.4321C48.9479 37.555 49.3225 36.4765 49.3261 35.3655V32.8536Z" fill="white"/>
<path d="M54.3882 31.5972C53.0456 31.5972 51.7581 32.1265 50.8088 33.0686C49.8595 34.0108 49.3262 35.2886 49.3262 36.621V37.877C49.3298 38.9879 49.7044 40.0664 50.3913 40.9436C51.0783 41.8208 52.0388 42.4473 53.1227 42.725V52.9485C53.1227 53.2816 53.256 53.6011 53.4933 53.8366C53.7306 54.0722 54.0525 54.2045 54.3882 54.2045C54.7238 54.2045 55.0457 54.0722 55.283 53.8366C55.5203 53.6011 55.6537 53.2816 55.6537 52.9485V42.725C56.7375 42.4473 57.6981 41.8208 58.385 40.9436C59.0719 40.0664 59.4465 38.9879 59.4501 37.877V36.621C59.4501 35.2886 58.9168 34.0108 57.9675 33.0686C57.0182 32.1265 55.7307 31.5972 54.3882 31.5972ZM56.9192 37.877C56.9192 38.5432 56.6525 39.1821 56.1778 39.6532C55.7032 40.1243 55.0594 40.3889 54.3882 40.3889C53.7169 40.3889 53.0731 40.1243 52.5985 39.6532C52.1238 39.1821 51.8572 38.5432 51.8572 37.877V36.621C51.8572 35.9548 52.1238 35.3159 52.5985 34.8448C53.0731 34.3737 53.7169 34.1091 54.3882 34.1091C55.0594 34.1091 55.7032 34.3737 56.1778 34.8448C56.6525 35.3159 56.9192 35.9548 56.9192 36.621V37.877Z" fill="white"/>
<defs>
<filter id="filter0_d" x="0.480469" y="0.126953" width="96.5195" height="99.3317" filterUnits="userSpaceOnUse" color-interpolation-filters="sRGB">
<feFlood flood-opacity="0" result="BackgroundImageFix"/>
<feColorMatrix in="SourceAlpha" type="matrix" values="0 0 0 0 0 0 0 0 0 0 0 0 0 0 0 0 0 0 127 0"/>
<feOffset dy="2"/>
<feGaussianBlur stdDeviation="10"/>
<feColorMatrix type="matrix" values="0 0 0 0 0 0 0 0 0 0 0 0 0 0 0 0 0 0 0.2 0"/>
<feBlend mode="normal" in2="BackgroundImageFix" result="effect1_dropShadow"/>
<feBlend mode="normal" in="SourceGraphic" in2="effect1_dropShadow" result="shape"/>
</filter>
</defs>
</svg>
